# xmcd
#
# Track frame offsets:
#	150
#	15407
#	32580
#	49905
#	68222
#	92282
#	112620
#	127767
#	147347
#	164285
#	187237
#	203490
#	223072
#
# Disc length: 3166 seconds
# Revision: 5
# Processed by: cddbd v1.5.2PL0 Copyright (c) Steve Scherf et al.
# Submitted via: dBpowerAMP V12.0
#
DISCID=a70c5c0d
DTITLE=Various Artist - Hitchhiker Exampler, Vol. 2
DYEAR=1990
DGENRE=Country
TTITLE0=Mary-Chapin Carpenter - Down At The Twist And Shout
TTITLE1=Darden Smith - Midnight Train
TTITLE2=Rodney Crowell - Stay (Don't Be Cruel)
TTITLE3=Chet Atkins and Mark Knopfler - Poor Boy Blues
TTITLE4=Rosanne Cash - All Come True
TTITLE5=Shawn Colvin - You're Gonna Make Me Lonesome When You Go (Live)
TTITLE6=Don Henry - Cadillac Avenue
TTITLE7=Indigo Girls - Southland In The Springtime
TTITLE8=Radiators, The - Molasses
TTITLE9=Mary-Chapin Carpenter - When She's Gone
TTITLE10=Don Henry - White House Keys
TTITLE11=Rosanne Cash - I Want A Cure
TTITLE12=Tommy Conwell and The Young Rumblers - Didn't Want To Sing The Blues
EXTD=
EXTT0=
EXTT1=
EXTT2=
EXTT3=
EXTT4=
EXTT5=
EXTT6=
EXTT7=
EXTT8=
EXTT9=
EXTT10=
EXTT11=
EXTT12=
PLAYORDER=
